#!OML:ASF E:/inclinewalkrobotboard/Project1/Captureday1/Session1/subject1.ASF
:FULLY-SPECIFIED
:DEGREES
63
root 0 0 0 40.749218417534344 -10.957105760005327 -3.932066969277022
lowerback -4.031966872571372 0.654963110021347 -10.940109978169682
upperback -18.972404578781855 0.03087169604243134 -1.4475098524271295
thorax -18.858553617718158 1.030946075714773 5.145494123047912
lowerneck -4.0195205543197 10.818058672675939 6.608151006121054
upperneck 14.07719607860453 13.946974114544139 4.218492159873422
head 4.895753570708773 7.0018300543121335 1.1195493220592487
rclavicle -5.916330720915279E-15 6.878975404782462E-15
rhumerus 156.9381966458866 0.8610020120902391 -184.95562464558344
rradius 9.891005365859119
rwrist 105.48544095008295
rhand -18.013987475781228 8.511121739418613
rfingers 7.125019999999975
rthumb 8.302062018064275 -21.56364057132332
lclavicle 1.464879626312613E-15 1.202625668409453E-14
lhumerus 14.462832894112857 14.058822509239514 -8.754109134855575
lradius 16.24219973183404
lwrist -37.640598109471966
lhand 12.168964525688125 38.76602143674123
lfingers 7.125020000000045
lthumb 37.23802401968483 65.34731902596117
rfemur 172.51317460388054 -215.46511297186393 -187.50525834464548
rtibia 61.043902744881095
rfoot -39.33238948705589 -14.394567844315539
rtoes 53.71063664736256
lfemur -94.76715761671389 25.479149246687925 -53.50703575102385
ltibia 69.14179349199546
lfoot 10.905627301177145 34.214119532889754
ltoes 8.857792640262367
64
root 0 0 0 42.6244201186915 -13.629722753730686 -5.5517404160911985
lowerback -4.377332760256767 1.0173816755686742 -10.191465441190338
upperback -19.186168152692602 0.49105006876702173 -1.2623580947379884
thorax -18.90629701117564 1.187677363750515 4.952208858959345
lowerneck -4.358678037141929 11.011971784247562 6.578120126295372
upperneck 12.877784511648965 14.209199074558612 4.6525049861500145
head 4.479399995949218 7.146938281110469 1.2779840361139556
rclavicle -6.479400431481511E-15 6.4026680145945814E-15
rhumerus 155.57581165494724 0.8411963614211437 -184.06739769116194
rradius 9.658106963420739
rwrist 105.61798801793991
rhand -17.875175277374286 8.493347658921635
rfingers 7.125019999999975
rthumb 8.435784489649746 -21.5583346036879
lclavicle 1.410775837628947E-15 1.071242628009173E-14
lhumerus 14.047576042880802 13.21711667086998 -9.995482822824364
lradius 16.927121542311856
lwrist -37.774324936352826
lhand 12.202196238395734 38.75397157827456
lfingers 7.1250200000000445
lthumb 37.26528766212344 65.28951609147566
rfemur 172.69132425809138 -214.25281054656483 -186.99377671652857
rtibia 62.92966875067404
rfoot -31.34539191578083 -18.460562702707072
rtoes 54.97664929278764
lfemur -96.44524125678069 26.57096370972755 -51.73306231294264
ltibia 69.47100704658936
lfoot 11.772311254573356 33.7927884355824
ltoes 9.97942752860865
65
root 0 0 0 44.88013321562451 -16.722521923973254 -7.413038198626096
lowerback -4.9568710401270435 1.3928139641800892 -9.404264049090171
upperback -19.468633709094128 0.9561044264679831 -1.0092001128105936
thorax -18.891891082408936 1.3359928635920688 4.826546790226277
lowerneck -4.719768427680046 11.152004521877721 6.452874759700544
upperneck 11.678902672831027 14.384252281909843 5.221435905372954
head 4.072249522901052 7.253790938937622 1.4850445820124185
rclavicle -7.224977605773146E-15 5.8998443698102956E-15
rhumerus 154.15094519299993 0.7654870169452828 -183.51923471127733
rradius 9.294532337263199
rwrist 105.36258692250196
rhand -17.65840802148731 8.395496145555338
rfingers 7.125019999999975
rthumb 8.641503692552089 -21.626550619867984
lclavicle 7.226093390400328E-16 9.461816843482852E-15
lhumerus 14.274201612702537 12.852756990639556 -11.096592438439636
lradius 17.45965998272269
lwrist -37.92232289785148
lhand 12.179282179870055 38.65071544017175
lfingers 7.125020000000044
lthumb 37.23972463716228 65.16394077959761
rfemur 173.50129972632567 -213.44133231445608 -186.54275646458373
rtibia 65.17173600553113
rfoot -23.29799664819018 -22.261910691305186
rtoes 55.14091992280549
lfemur -97.71755103234005 27.400661803485214 -50.17221634004491
ltibia 69.76322136003023
lfoot 11.313318585646744 33.55990722313997
ltoes 11.19135488116142
66
root 0 0 0 47.83655531013909 -20.63189199559615 -9.747847097172572
lowerback -5.8587992358229615 1.8363659093171485 -8.514451595506157
upperback -19.83285337741382 1.496624770145527 -0.687861179371827
thorax -18.78256721480775 1.5007289516447102 4.7372688136391865
lowerneck -5.170713707696773 11.26215097375302 6.247283052815673
upperneck 10.428246968861192 14.49448397681191 5.9606047053853555
head 3.6653873636378664 7.3391593844664325 1.754960327233883
rclavicle -7.9046917530884E-15 5.40850734206763E-15
rhumerus 152.5399658841751 0.6022117696437874 -183.3282785419186
rradius 8.745503938119228
rwrist 104.71108631332572
rhand -17.3416943173982 8.207325115313669
rfingers 7.125019999999976
rthumb 8.941064689525007 -21.775371616998523
lclavicle -8.644360333659023E-17 8.27668869865806E-15
lhumerus 14.586372513180464 12.770195437810388 -11.878565836918533
lradius 17.840156029340573
lwrist -38.04500811142265
lhand 12.112063761880021 38.530035343756445
lfingers 7.125020000000043
lthumb 37.173543763751624 65.03890890609057
rfemur 174.45552924026273 -212.6603543358582 -185.9139286735462
rtibia 66.88262580858074
rfoot -16.70671763133741 -25.00792368088141
rtoes 54.24413877719324
lfemur -98.75063552637212 28.111851692516744 -48.643080813083586
ltibia 69.97247499108995
lfoot 9.561005341949457 33.50829716262026
ltoes 12.671061829552134
